# xmcd CD database file
#
# Track frame offsets:
#	150
#	20740
#	42960
#	66107
#	86797
#
# Disc length: 1452 seconds
#
# Revision: 0
# Processed by: cddbd v1.5PL3 Copyright (c) Steve Scherf et al.
# Submitted via: CDex 1.51
#
DISCID=3e05aa05
DTITLE=小松未歩 - 愛してる．．．
DYEAR=2001
DGENRE=JPop
TTITLE0=愛してる．．．
TTITLE1=足掻き
TTITLE2=愛してる．．． 〜inlaid with love mix〜
TTITLE3=愛してる．．． 〜instrumental[〜
TTITLE4=足掻き 〜instrumental〜
EXTD=YEAR: 2001
EXTT0=
EXTT1=
EXTT2=
EXTT3=
EXTT4=
PLAYORDER=
